<svg xmlns="http://www.w3.org/2000/svg" viewBox="-16152.9 -9960.298 158.6 40.002"><defs><style>.a,.b{fill:#fff;}.b{fill-rule:evenodd;}</style></defs><g transform="translate(6466 -12678.397)"><g transform="translate(-22618.9 2718.1)"><rect class="a" width="8.217" height="6.546" transform="translate(69.436 0.271)"/><rect class="a" width="8.217" height="6.546" transform="translate(125.463 0.271)"/><path class="b" d="M24.354-1551.822c-2.393-2.528-2.754-6.185-2.754-13.409,0-6.907.316-11.422,2.935-13.905a7.736,7.736,0,0,1,5.6-1.941c2.664,0,4.244.316,5.6,1.129v-9.752h8.217v39.774l-6.907.09-.226-1.49c-1.761,1.264-3.837,1.625-7,1.625A7.063,7.063,0,0,1,24.354-1551.822Zm11.377-13.138c0-6.637-.316-8.172-3.16-8.172-2.393,0-2.664,1.535-2.664,8.172,0,6.591.316,7.81,2.664,7.81C35.37-1557.149,35.731-1558.278,35.731-1564.96Z" transform="translate(20.612 1589.7)"/><path class="a" d="M-71.9-1589.6h8.262v39.684H-71.9Z" transform="translate(71.9 1589.645)"/><path class="b" d="M-24.762-1561.139c0-3.205-.542-5.734-1.806-7.133-1.4-1.58-4.063-2.528-7.63-2.528a35.81,35.81,0,0,0-10.2,1.806l1.9,6.456a18.757,18.757,0,0,1,7.765-1.083c.993.135,1.806,1.039,1.851,3.386h-.5c-8.849,0-12.415,1.986-12.415,10.609,0,8.352,2.935,10.294,7.946,10.294,3.16,0,4.786-.5,6-1.625l.316,1.445,6.637-.181Zm-8.126,7.359.045,3.431c0,2.664-.406,4.018-2.935,4.018-1.716,0-2.077-.948-2.077-3.928C-37.854-1552.922-37.538-1553.78-32.888-1553.78Z" transform="translate(57.583 1579.333)"/><path class="b" d="M253.838-1561.139c0-3.205-.542-5.734-1.806-7.133-1.4-1.58-4.063-2.528-7.63-2.528a35.5,35.5,0,0,0-10.2,1.806l1.9,6.456a18.757,18.757,0,0,1,7.765-1.083c.993.135,1.806,1.039,1.851,3.386h-.5c-8.849,0-12.415,1.986-12.415,10.609,0,8.352,2.935,10.294,7.946,10.294,3.16,0,4.786-.5,6-1.625l.316,1.445,6.637-.181Zm-8.081,7.359.045,3.431c0,2.664-.406,4.018-2.935,4.018-1.716,0-2.077-.948-2.077-3.928C240.791-1552.922,241.062-1553.78,245.757-1553.78Z" transform="translate(-95.238 1579.333)"/><rect class="a" width="8.217" height="30.79" transform="translate(125.463 8.984)"/><path class="a" d="M165.8-1569.494l6.862-.406.361,1.67c1.49-1.174,3.386-1.625,6.5-1.67v8.081c-3.657.09-5.463,1.174-5.463,5.327v17.381H165.8Z" transform="translate(-58.486 1578.839)"/><path class="b" d="M130.638-1561.139c0-3.205-.5-5.734-1.806-7.133-1.4-1.58-4.063-2.528-7.63-2.528a35.81,35.81,0,0,0-10.2,1.806l1.9,6.456a18.757,18.757,0,0,1,7.765-1.083c.993.135,1.806,1.039,1.851,3.386h-.5c-8.849,0-12.415,1.986-12.415,10.609,0,8.352,2.935,10.294,7.946,10.294,3.16,0,4.786-.5,6-1.625l.316,1.445,6.637-.181Zm-8.126,7.359.045,3.431c0,2.664-.406,4.018-2.935,4.018-1.716,0-2.077-.948-2.077-3.928C117.546-1552.922,117.862-1553.78,122.512-1553.78Z" transform="translate(-27.659 1579.333)"/><rect class="a" width="8.217" height="30.79" transform="translate(69.436 8.984)"/></g></g></svg>